<?xml version="1.0" encoding="UTF-8" standalone="no"?>
<!-- Created with Inkscape (http://www.inkscape.org/) -->

<svg
   xmlns:dc="http://purl.org/dc/elements/1.1/"
   xmlns:cc="http://creativecommons.org/ns#"
   xmlns:rdf="http://www.w3.org/1999/02/22-rdf-syntax-ns#"
   xmlns:svg="http://www.w3.org/2000/svg"
   xmlns="http://www.w3.org/2000/svg"
   xmlns:sodipodi="http://sodipodi.sourceforge.net/DTD/sodipodi-0.dtd"
   xmlns:inkscape="http://www.inkscape.org/namespaces/inkscape"
   id="svg2985"
   version="1.1"
   inkscape:version="0.48.0 r9654"
   width="743.75"
   height="1052.5"
   xml:space="preserve"
   sodipodi:docname="Schittny2007a.svg"><metadata
     id="metadata2991"><rdf:RDF><cc:Work
         rdf:about=""><dc:format>image/svg+xml</dc:format><dc:type
           rdf:resource="http://purl.org/dc/dcmitype/StillImage" /><dc:title></dc:title></cc:Work></rdf:RDF></metadata><defs
     id="defs2989"><clipPath
       clipPathUnits="userSpaceOnUse"
       id="clipPath3001"><path
         d="m 0.0703125,7016.67 0,-7015.998125 4957.8596875,0 0,7015.998125 -4957.8596875,0 z"
         id="path3003" /></clipPath></defs><sodipodi:namedview
     pagecolor="#ffffff"
     bordercolor="#666666"
     borderopacity="1"
     objecttolerance="10"
     gridtolerance="10"
     guidetolerance="10"
     inkscape:pageopacity="0"
     inkscape:pageshadow="2"
     inkscape:window-width="1920"
     inkscape:window-height="1033"
     id="namedview2987"
     showgrid="false"
     inkscape:zoom="1.9610451"
     inkscape:cx="261.52062"
     inkscape:cy="727.84588"
     inkscape:window-x="-4"
     inkscape:window-y="495"
     inkscape:window-maximized="1"
     inkscape:current-layer="g2999" /><g
     id="g2993"
     inkscape:groupmode="layer"
     inkscape:label="Schittny2007a"
     transform="matrix(1.25,0,0,-1.25,0,1052.5)"><g
       id="g2995"
       transform="scale(0.12,0.12)"><g
         id="g2997"><g
           id="g2999"
           clip-path="url(#clipPath3001)"><path
             d="m 1504.7914,5650.66 c 186.25,231.11 893.0599,477.41 1337.4499,489.11 M 1495.4314,3999.05 c 921.1179,-146.7083 1245.834,-84.2705 1455.4574,170.6862"
             style="fill:none;stroke:#00a651;stroke-width:66.66030121;stroke-linecap:butt;stroke-linejoin:miter;stroke-miterlimit:22.9260006;stroke-opacity:1;stroke-dasharray:none"
             id="path3005"
             inkscape:export-filename="P:\doc\#Docs\AcinusPaper\img\AcinusDiagram\path3045.png"
             inkscape:export-xdpi="600"
             inkscape:export-ydpi="600"
             inkscape:connector-curvature="0"
             sodipodi:nodetypes="cccc" /><path
             d="m 2045.21,6353.94 c -0.17,-1.83 -0.27,-170.69 -0.27,-170.69 l -275.46,-167.24 m 51.03,-51.66 269.15,165.25 236.6,-165.25 1.25,-155.22 -185.27,-91.39 m 72.01,635.94 -1.52,-169.76 194.41,-186.26 202.04,0.5 m 9.87,-41.95 -206.55,0 -2.5,-151.47 205.3,-165.25 85.37,-162.99 m -525.88,202.43 179.01,86.38 143.45,-110.16 -115.83,-175.6 m 256.99,-0.58 -89.32,137.37 -81.75,-139.01"
             style="fill:none;stroke:#242122;stroke-opacity:1;stroke-width:33.3302;stroke-linecap:butt;stroke-linejoin:miter;stroke-miterlimit:22.926;stroke-dasharray:none"
             id="path3007"
             inkscape:export-filename="P:\doc\#Docs\AcinusPaper\img\AcinusDiagram\path3045.png"
             inkscape:export-xdpi="600"
             inkscape:export-ydpi="600" /><path
             d="m 2038.53,5375.31 170.25,-20.02 132.8,68.22 39.96,56.95 m -363.23,-164.56 138.95,-13.77 -62.59,-131.45 m 58.83,-26.29 68.86,143.96 138.96,80.13 1.25,-112.68 -157.74,-146.47 m 262.1,369.88 -30.66,-52.09 -3.6,-160.62 333.65,-245.6 m -521.43,54.64 156.48,140.21 137.7,-115.18 -91.37,-105.15 m -41,-46 -2.7,-1.12 -85.25,-80.57 m -56.89,-17.82 -48.26,-25.99 -121.43,28.79 m 561.78,167.29 -66.05,54.29 -51.32,-58.84 25.52,-32.7 m 34.14,-39.07 15.45,-30.89 m -63.85,-18.77 -48.82,73.86 -30.05,-27.54 m -22.53,-36.3 -31.3,-30.05 66.22,-53.2 m 34.89,-31.83 42.96,-27.86 m 39.97,-19.03 143.95,-50.86 m -665.99,106.42 107.66,-20.03 -2.75,-22.84 m -8.44,-49.6 1.18,-49.51 m -2.48,-48.7 1.23,-41.2 m 542.77,71.26 -88.81,44.68 m -40.73,9.94 -70.76,34.26 -38.34,-51.28 m -58.88,8.76 44.64,67.56 -28.06,26.22 m -30.54,42.16 -14,12.99 -33.86,8 m -51.27,-41.8 -66.34,-30.04 0,-45.23 m 3,-118.95 -0.5,6.44 2.5,-43.73"
             style="fill:none;stroke:#242122;stroke-opacity:1;stroke-width:16.6651;stroke-linecap:butt;stroke-linejoin:miter;stroke-miterlimit:22.926;stroke-dasharray:none"
             id="path3009"
             inkscape:export-filename="P:\doc\#Docs\AcinusPaper\img\AcinusDiagram\path3045.png"
             inkscape:export-xdpi="600"
             inkscape:export-ydpi="600" /><path
             d="m 2594.39,4942.09 c 29.38,28.26 9.45,68.74 -34.67,41.64 m -109.42,11.71 c -47.47,39.51 -81.84,-2.37 -42.69,-49.3 m -86.84,-78.65 c -25,53.1 -85.11,31.31 -60.68,-20.33 m 255.74,-61.86 c 33.79,51.05 -0.52,76.4 -37.6,33.64 m 121.9,-79.58 c 22.47,43.57 -14.62,63.17 -44.89,21.09 m -148.79,61.28 c -51.58,-35.57 -13.56,-85.1 31.39,-45.39 m -133.76,20.61 c 24.56,-47.85 88.52,-16.4 54.28,41.21 m -120.85,-174.98 c 62.69,5.28 61.7,56.93 -0.56,62.98 m 2.42,-117.58 c 61.82,2.78 58.06,56.83 -4.79,54.87 m -50.87,93.82 c -64.36,6.36 -63.01,-57.32 -8.35,-54.18 m 2.14,-45.59 c -56.17,1.18 -64.24,-54.89 -2.11,-52.36 m 247.12,79.27 c -40.68,10.76 -54.65,-15.47 -27.33,-40.84 M 2377.69,4619 c -29.1,19.62 -61.79,0.26 -20.88,-44.89 m 227.92,119.13 c -19.53,-41.7 27.75,-54.85 44.36,-12.06 m -180.27,-52.23 c 46.84,-11.73 60.64,20.12 28.9,48.81 m 177.55,-424.75 c 93.01,-53.89 118.34,20.24 37.46,42.94 m -223.35,109.09 c 29.94,69.5 2.46,84.07 -47.74,53.91 m 95.1,-76.22 c 22.1,80.32 -28.97,36.12 -44.03,25.42 m 99.59,-48.24 c 20.51,91.19 -20.51,98.87 -54.77,27.06 m 114.02,-20.87 c 5.55,89.91 -49.77,68.02 -58.26,-3.14 m 106.41,9.2 c 23.94,56.11 -43.72,80.97 -49.11,-8.4 m 92.93,-27.63 c 58.9,34.99 13.82,100.9 -44.61,37.3 m 17.13,-78.13 c 82.75,-32.33 87.53,48.89 28.71,41.56 m -86.39,-141.81 c 76.85,-28.11 80.89,27.25 22.92,54.21 m -52.69,-77.92 c 13.07,-72.56 113.78,-27.02 32.89,21.98 m -69.64,-3.29 c -55.68,-45.21 26.63,-91.58 38.1,-21.76 m -58.28,62.99 c -75.03,-37.43 -33.46,-94.96 16.91,-45.5 m -65.21,90.16 c -54.59,-43.85 -10.55,-82.62 50.79,-41.74 m -99.42,79.28 c -47.16,-59.33 3.38,-80 53.64,-32.19 m -97.94,61.61 c -42.14,-49.92 8.02,-75.3 49.5,-23.09 m -97.47,54.61 c -29.63,-56.06 10.67,-81.59 46.51,-34.1 m -88.7,-196.76 c 55.3,25.49 49.27,75.91 -40.51,39.17 m 53.13,-80.05 c 63.89,-7.01 46.88,64.67 -11.43,41.41 m -7.28,-64.65 c 31.3,-76.72 102.85,5.58 19.94,25.2 m -80.92,-27.91 c -5.09,-66.21 69.38,-52.42 59.01,7.81 m -111.06,2.83 c -38.95,-55.65 46.35,-90.77 52.38,-10.81 m -75.48,38.65 c -91,-24.05 -11.86,-90.55 21.32,-33.59 m -25.12,100.85 c -68.27,14.46 -75.26,-72.7 7.32,-65.44 m 21.3,121.87 c -56.91,24.54 -75.99,-34.99 -26.71,-57.02 m 44.87,117.7 c -55.21,7.92 -57.67,-32.85 -17.8,-62.04 m 43.32,131.06 c -55.21,8.83 -61.82,-38.53 -21.95,-71.13 m 46.17,133.63 c -55.21,7.91 -61.82,-34.5 -21.95,-63.7 m 47.59,123.64 c -55.21,7.91 -61.81,-34.51 -21.94,-63.7 m 50.36,121.23 c -39.25,16.34 -75.49,-24.57 -32.9,-56.24 m -7,-188.03 c 47.11,-21.6 65.42,12.56 38.22,51.59 m -51.88,-114.09 c 91.2,-14.49 71.2,45.3 15.1,62.12 m 136.4,155.66 c 60.44,35.15 36.55,65.52 -32.54,55.59 m -69.34,-159.97 43.5,19.63 m 43.86,208.23 c 1.46,-0.36 2.91,-0.69 4.32,-0.97 43.88,-8.81 65.61,20.32 34.88,48.12"
             style="fill:none;stroke:#242122;stroke-opacity:1;stroke-width:13.33333333;stroke-linecap:butt;stroke-linejoin:miter;stroke-miterlimit:22.9260006;stroke-dasharray:none"
             id="path3011"
             inkscape:export-filename="P:\doc\#Docs\AcinusPaper\img\AcinusDiagram\path3045.png"
             inkscape:export-xdpi="600"
             inkscape:export-ydpi="600" /><path
             d="m 2410.48,4584.95 -11.13,-23.9 m -3.84,84.2 -19.32,-27.79 m -21.23,-40.1 -33.66,-27.84"
             style="fill:none;stroke:#242122;stroke-opacity:1;stroke-width:16.6651;stroke-linecap:butt;stroke-linejoin:miter;stroke-miterlimit:22.926;stroke-dasharray:none"
             id="path3013"
             inkscape:export-filename="P:\doc\#Docs\AcinusPaper\img\AcinusDiagram\path3045.png"
             inkscape:export-xdpi="600"
             inkscape:export-ydpi="600" /><path
             d="m 2387.21,4515.33 c 0.5,0.01 0.98,0.01 1.47,0.03 85.65,4.78 72.82,47.15 11.98,46.4 m -910.31,8.6 837.11,0 m 78.09,-3.99 441.63,0 m -565.69,-382.89 c 90.83,16.64 50.78,60.94 -7.72,58.16"
             style="fill:none;stroke:#242122;stroke-opacity:1;stroke-width:13.33333333;stroke-linecap:butt;stroke-linejoin:miter;stroke-miterlimit:22.9260006;stroke-dasharray:none"
             id="path3015"
             inkscape:export-filename="P:\doc\#Docs\AcinusPaper\img\AcinusDiagram\path3045.png"
             inkscape:export-xdpi="600"
             inkscape:export-ydpi="600" /><path
             d="m 2635.13,4399.35 -3.2,-40.62 m -53.68,37.63 -9.71,-39.58 m 118.83,27.87 -15.96,-24.84 m -29.98,-98.23 35.26,-20.41 m -65.07,-45.38 -1,-40.74 m -38.5,90.21 -35.03,-20.82 m -12.76,65.26 -32.97,-23.96 m -234.72,-167.49 -4.21,-40.52 m -49.85,121.44 -40.28,6.13 m 42.45,-70.51 -40.73,-1.49 m 155.53,81.53 -38.45,-13.49 m 19.1,58.99 -40.66,2.67"
             style="fill:none;stroke:#242122;stroke-opacity:1;stroke-width:13.33333333;stroke-linecap:butt;stroke-linejoin:miter;stroke-miterlimit:22.9260006;stroke-dasharray:none"
             id="path3017"
             inkscape:export-filename="P:\doc\#Docs\AcinusPaper\img\AcinusDiagram\path3045.png"
             inkscape:export-xdpi="600"
             inkscape:export-ydpi="600" /><path
             d="m 1490.79,5017.89 975.95,0 m 385.61,0 -313.06,0 m -1048.91,456.82 875.23,0 m 484.05,0 -382.93,0"
             style="fill:none;stroke:#242122;stroke-opacity:1;stroke-width:13.33333333;stroke-linecap:butt;stroke-linejoin:miter;stroke-miterlimit:22.9260006;stroke-dasharray:none"
             id="path3019"
             inkscape:export-filename="P:\doc\#Docs\AcinusPaper\img\AcinusDiagram\path3045.png"
             inkscape:export-xdpi="600"
             inkscape:export-ydpi="600" /><path
             d="m 2633.09,5475.86 17.63,-0.06 -6.06,8.37 -11.57,-8.31"
             style="fill:#242122;fill-opacity:1;fill-rule:evenodd;stroke:none"
             id="path3021"
             inkscape:export-filename="P:\doc\#Docs\AcinusPaper\img\AcinusDiagram\path3045.png"
             inkscape:export-xdpi="600"
             inkscape:export-ydpi="600" /><path
             d="m 2633.09,5475.86 17.63,-0.06 -6.06,8.37 -11.57,-8.31 z"
             style="fill:none;stroke:#242122;stroke-opacity:1;stroke-width:1.79983;stroke-linecap:butt;stroke-linejoin:miter;stroke-miterlimit:22.926;stroke-dasharray:none"
             id="path3023"
             inkscape:export-filename="P:\doc\#Docs\AcinusPaper\img\AcinusDiagram\path3045.png"
             inkscape:export-xdpi="600"
             inkscape:export-ydpi="600" /><path
             d="m 2692.95,5476.59 17.56,-0.59 -5.14,8.96 -12.42,-8.37"
             style="fill:#242122;fill-opacity:1;fill-rule:evenodd;stroke:none"
             id="path3025"
             inkscape:export-filename="P:\doc\#Docs\AcinusPaper\img\AcinusDiagram\path3045.png"
             inkscape:export-xdpi="600"
             inkscape:export-ydpi="600" /><path
             d="m 2692.95,5476.59 17.56,-0.59 -5.14,8.96 -12.42,-8.37 z"
             style="fill:none;stroke:#242122;stroke-opacity:1;stroke-width:1.79983;stroke-linecap:butt;stroke-linejoin:miter;stroke-miterlimit:22.926;stroke-dasharray:none"
             id="path3027"
             inkscape:export-filename="P:\doc\#Docs\AcinusPaper\img\AcinusDiagram\path3045.png"
             inkscape:export-xdpi="600"
             inkscape:export-ydpi="600" /><path
             d="m 2463.62,5485.23 -0.6,0.13 -6.93,-10.43 17.93,-0.72 2.99,3.84 -13.39,7.18"
             style="fill:#242122;fill-opacity:1;fill-rule:evenodd;stroke:none"
             id="path3029"
             inkscape:export-filename="P:\doc\#Docs\AcinusPaper\img\AcinusDiagram\path3045.png"
             inkscape:export-xdpi="600"
             inkscape:export-ydpi="600" /><path
             d="m 2463.62,5485.23 -0.6,0.13 -6.93,-10.43 17.93,-0.72 2.99,3.84 -13.39,7.18 z"
             style="fill:none;stroke:#242122;stroke-opacity:1;stroke-width:1.79983;stroke-linecap:butt;stroke-linejoin:miter;stroke-miterlimit:22.926;stroke-dasharray:none"
             id="path3031"
             inkscape:export-filename="P:\doc\#Docs\AcinusPaper\img\AcinusDiagram\path3045.png"
             inkscape:export-xdpi="600"
             inkscape:export-ydpi="600" /><path
             d="m 2387.43,5475.17 -11.85,10.3 -7.89,-10.78 19.74,0.48"
             style="fill:#242122;fill-opacity:1;fill-rule:evenodd;stroke:none"
             id="path3033"
             inkscape:export-filename="P:\doc\#Docs\AcinusPaper\img\AcinusDiagram\path3045.png"
             inkscape:export-xdpi="600"
             inkscape:export-ydpi="600" /><path
             d="m 2387.43,5475.17 -11.85,10.3 -7.89,-10.78 19.74,0.48 z"
             style="fill:none;stroke:#242122;stroke-opacity:1;stroke-width:1.79983;stroke-linecap:butt;stroke-linejoin:miter;stroke-miterlimit:22.926;stroke-dasharray:none"
             id="path3035"
             inkscape:export-filename="P:\doc\#Docs\AcinusPaper\img\AcinusDiagram\path3045.png"
             inkscape:export-xdpi="600"
             inkscape:export-ydpi="600" /><path
             d="m 2764.08,5017.2 2.28,8.43 8.35,-5.75 -10.63,-2.68"
             style="fill:#242122;fill-opacity:1;fill-rule:evenodd;stroke:none"
             id="path3037"
             inkscape:export-filename="P:\doc\#Docs\AcinusPaper\img\AcinusDiagram\path3045.png"
             inkscape:export-xdpi="600"
             inkscape:export-ydpi="600" /><path
             d="m 2764.08,5017.2 2.28,8.43 8.35,-5.75 -10.63,-2.68 z"
             style="fill:none;stroke:#242122;stroke-opacity:1;stroke-width:1.79983;stroke-linecap:butt;stroke-linejoin:miter;stroke-miterlimit:22.926;stroke-dasharray:none"
             id="path3039"
             inkscape:export-filename="P:\doc\#Docs\AcinusPaper\img\AcinusDiagram\path3045.png"
             inkscape:export-xdpi="600"
             inkscape:export-ydpi="600" /><path
             d="m 2653.6,5025.23 7.11,-5.88 -4.89,-1.83 -5.68,-0.14 2.81,6.29 0.65,1.56"
             style="fill:#242122;fill-opacity:1;fill-rule:evenodd;stroke:none"
             id="path3041"
             inkscape:export-filename="P:\doc\#Docs\AcinusPaper\img\AcinusDiagram\path3045.png"
             inkscape:export-xdpi="600"
             inkscape:export-ydpi="600" /><path
             d="m 2653.6,5025.23 7.11,-5.88 -4.89,-1.83 -5.68,-0.14 2.81,6.29 0.65,1.56 z"
             style="fill:none;stroke:#242122;stroke-opacity:1;stroke-width:1.79983;stroke-linecap:butt;stroke-linejoin:miter;stroke-miterlimit:22.926;stroke-dasharray:none"
             id="path3043"
             inkscape:export-filename="P:\doc\#Docs\AcinusPaper\img\AcinusDiagram\path3045.png"
             inkscape:export-xdpi="600"
             inkscape:export-ydpi="600" /><path
             d="m 2442.41,4903.54 c 48.52,-30.87 71.74,1.78 30.96,35.87"
             style="fill:none;stroke:#242122;stroke-opacity:1;stroke-width:8.33254;stroke-linecap:butt;stroke-linejoin:miter;stroke-miterlimit:22.926;stroke-dasharray:none"
             id="path3045"
             inkscape:export-xdpi="600"
             inkscape:export-ydpi="600" /><g
             id="g3047"
             transform="scale(8.33333,8.33333)"
             inkscape:export-filename="P:\doc\#Docs\AcinusPaper\img\AcinusDiagram\path3045.png"
             inkscape:export-xdpi="600"
             inkscape:export-ydpi="600" /><g
             id="g3057"
             transform="scale(8.33333,8.33333)"
             inkscape:export-filename="P:\doc\#Docs\AcinusPaper\img\AcinusDiagram\path3045.png"
             inkscape:export-xdpi="600"
             inkscape:export-ydpi="600" /><g
             id="g3093"
             transform="scale(8.33333,8.33333)"
             inkscape:export-filename="P:\doc\#Docs\AcinusPaper\img\AcinusDiagram\path3045.png"
             inkscape:export-xdpi="600"
             inkscape:export-ydpi="600" /></g></g></g></g></svg>